<svg xmlns="http://www.w3.org/2000/svg" viewBox="0.81 -52.94 359.00 60.56" role="img" aria-label="여성문화센터">
  <path d="M29.1875 -39.0H42.375V-50.9375H49.25V5.625H42.375V-15.75H29.6875Q27.84375 -11.53125 24.625 -9.203125Q21.40625 -6.875 17.3125 -6.875Q13.0625 -6.875 9.78125 -9.3125Q6.5 -11.75 4.65625 -16.28125Q2.8125 -20.8125 2.8125 -26.875Q2.8125 -32.875 4.65625 -37.390625Q6.5 -41.90625 9.796875 -44.359375Q13.09375 -46.8125 17.3125 -46.8125Q21.125 -46.8125 24.203125 -44.78125Q27.28125 -42.75 29.1875 -39.0ZM9.5 -26.875Q9.46875 -22.59375 10.4375 -19.5Q11.40625 -16.40625 13.1875 -14.765625Q14.96875 -13.125 17.3125 -13.125Q19.65625 -13.125 21.421875 -14.765625Q23.1875 -16.40625 24.171875 -19.5Q25.15625 -22.59375 25.1875 -26.875Q25.15625 -31.125 24.171875 -34.21875Q23.1875 -37.3125 21.421875 -38.9375Q19.65625 -40.5625 17.3125 -40.5625Q14.96875 -40.5625 13.1875 -38.921875Q11.40625 -37.28125 10.4375 -34.203125Q9.46875 -31.125 9.5 -26.875ZM31.75 -26.875Q31.75 -24.0625 31.3125 -21.375H42.375V-33.3125H31.125Q31.75 -30.28125 31.75 -26.875ZM97.5875 -25.3125 93.8375 -19.875Q89.275 -21.46875 86.040625 -24.4375Q82.80625 -27.40625 80.9625 -31.5Q79.05625 -26.78125 75.49375 -23.328125Q71.93125 -19.875 66.9 -18.125L63.2125 -23.75Q67.775 -25.25 70.93125 -28.09375Q74.0875 -30.9375 75.68125 -34.65625Q77.275 -38.375 77.275 -42.5V-47.875H84.275V-42.8125Q84.24375 -38.90625 85.74375 -35.4375Q87.24375 -31.96875 90.259375 -29.328125Q93.275 -26.6875 97.5875 -25.3125ZM110.9 -17.6875H103.9625V-34.3125H92.7125V-40.0H103.9625V-50.9375H110.9ZM111.0875 -5.3125Q111.0875 -1.90625 108.775 0.53125Q106.4625 2.96875 102.11875 4.234375Q97.775 5.5 91.775 5.5Q85.80625 5.5 81.478125 4.234375Q77.15 2.96875 74.853125 0.53125Q72.55625 -1.90625 72.5875 -5.3125Q72.55625 -8.71875 74.853125 -11.171875Q77.15 -13.625 81.49375 -14.90625Q85.8375 -16.1875 91.775 -16.1875Q97.74375 -16.1875 102.103125 -14.90625Q106.4625 -13.625 108.775 -11.171875Q111.0875 -8.71875 111.0875 -5.3125ZM79.4625 -5.3125Q79.4625 -2.71875 82.665625 -1.328125Q85.86875 0.0625 91.775 0.0625Q97.68125 0.0625 100.915625 -1.34375Q104.15 -2.75 104.15 -5.3125Q104.15 -7.96875 100.93125 -9.390625Q97.7125 -10.8125 91.775 -10.8125Q85.8375 -10.8125 82.65 -9.390625Q79.4625 -7.96875 79.4625 -5.3125ZM176.8625 -17.125H155.05V-6.75H148.175V-17.125H125.2375V-22.6875H176.8625ZM170.2375 -27.9375H131.8V-48.375H170.2375ZM138.55 -33.375H163.3625V-42.9375H138.55ZM171.175 4.4375H131.4875V-11.9375H138.425V-1.1875H171.175ZM231.7 -27.625H239.6375V-21.8125H231.7V5.5625H224.7V-50.9375H231.7ZM200.7625 -10.25V-15.53125Q197.7 -16.0625 195.403125 -17.46875Q193.10625 -18.875 191.85625 -21.015625Q190.60625 -23.15625 190.6375 -25.75Q190.60625 -28.90625 192.325 -31.3125Q194.04375 -33.71875 197.16875 -35.046875Q200.29375 -36.375 204.325 -36.375Q208.29375 -36.375 211.403125 -35.046875Q214.5125 -33.71875 216.278125 -31.3125Q218.04375 -28.90625 218.075 -25.75Q218.04375 -23.125 216.7625 -21.0Q215.48125 -18.875 213.153125 -17.453125Q210.825 -16.03125 207.7625 -15.53125V-10.5Q215.85625 -10.9375 221.7 -11.75L222.1375 -6.6875Q214.075 -5.25 205.6375 -4.8125Q197.2 -4.375 187.325 -4.375L186.325 -10.125Q195.575 -10.125 200.7625 -10.25ZM221.075 -38.9375H187.3875V-44.4375H200.7625V-50.6875H207.7625V-44.4375H221.075ZM197.2 -25.75Q197.2 -23.3125 199.1375 -21.9375Q201.075 -20.5625 204.325 -20.625Q207.54375 -20.5625 209.465625 -21.953125Q211.3875 -23.34375 211.3875 -25.75Q211.3875 -28.1875 209.465625 -29.59375Q207.54375 -31.0 204.325 -31.0625Q201.04375 -31.0 199.121875 -29.609375Q197.2 -28.21875 197.2 -25.75ZM297.0375 -8.625H290.4125V-50.9375H297.0375ZM285.725 -10.3125H279.1V-31.8125H271.5375V-37.5H279.1V-49.9375H285.725ZM298.6 4.4375H259.225V-13.6875H266.1625V-1.1875H298.6ZM276.6 -23.0 272.725 -17.625Q269.25625 -19.21875 266.771875 -21.953125Q264.2875 -24.6875 262.85 -28.25Q261.2875 -24.21875 258.6 -21.125Q255.9125 -18.03125 252.1625 -16.25L248.35 -21.5Q251.94375 -23.25 254.44375000000002 -26.140625Q256.94375 -29.03125 258.178125 -32.484375Q259.4125 -35.9375 259.4125 -39.375V-47.0625H266.1625V-39.375Q266.1625 -36.0 267.303125 -32.84375Q268.44375 -29.6875 270.7875 -27.109375Q273.13125 -24.53125 276.6 -23.0ZM357.8125 5.625H350.9375V-24.875H340.3125V-30.5H350.9375V-50.9375H357.8125ZM339.4375 -40.375H320.0V-30.25H337.1875V-24.75H320.0V-13.125Q326.9375 -13.15625 332.046875 -13.46875Q337.15625 -13.78125 342.3125 -14.625L343.0 -9.0Q337.125 -8.09375 331.34375 -7.765625Q325.5625 -7.4375 317.4375 -7.375H313.0V-46.0625H339.4375Z" fill="#2F2B4A"/>
</svg>
